:SAMPLES-PER-SECOND 30
:FRAME-RANGE 1-564
:FULLY-SPECIFIED
:DEGREES
547
root  43.7014 38.1767 -138.397 0.46759 -67.5842 2.22897
RightUpLeg  -0.609479 -6.00877 -4.36703
RightLeg  7.4225 -18.2123 -0.946743
RightFoot  -6.1224 -0.343782 6.62025
RightToes  1.21801e-010 1.2921e-014 -6.02303e-014
Spine  -13.0958 -1.20926 0.464743
Spine1  12.2059 -1.14354 -0.846256
HEad  7.06049 12.1915 -3.79647
LeftShoulder1  1.11179 -0.782498 -21.0488
LeftArm  -7.77873 7.59128 -52.8742
LeftForeArm  31.0615 3.29089 -10.7244
LeftHand  -0.0259141 5.58984 -0.360746
RightShoulder  1.05633 -0.235562 28.3475
RightArm  -26.5389 2.07113 50.2847
RightForeArm  68.8287 -5.2305 2.79747
RightHand  0.624631 -9.10978 -19.8538
LeftUpLeg  -1.51056 3.11581 0.127064
LeftLeg  5.7616 16.3203 3.38973
LeftFoot  -5.73422 0.204974 -3.46213
LeftToes  1.70735e-010 3.74918e-011 3.68705e-011
548
root  43.7701 38.1905 -138.391 0.631989 -67.5152 2.14056
RightUpLeg  -0.779659 -5.88476 -4.26732
RightLeg  7.35958 -18.4519 -1.05807
RightFoot  -5.94026 -0.323766 6.00027
RightToes  1.21801e-010 1.2921e-014 -6.02303e-014
Spine  -12.969 -1.17385 0.743183
Spine1  12.1924 -1.05579 -1.09265
HEad  6.71229 12.3594 -3.82394
LeftShoulder1  1.1267 -0.875353 -20.7852
LeftArm  -7.89871 7.76661 -52.9615
LeftForeArm  31.0331 3.4072 -10.7032
LeftHand  -0.023133 5.56593 -0.174604
RightShoulder  1.07128 -0.206412 28.515
RightArm  -26.1911 2.0074 50.2216
RightForeArm  67.3977 -5.32619 3.04409
RightHand  0.778968 -10.0646 -19.6354
LeftUpLeg  -1.64533 3.10765 0.123546
LeftLeg  5.62663 16.3003 3.2972
LeftFoot  -5.60273 0.196293 -3.24512
LeftToes  1.70735e-010 3.74918e-011 3.68705e-011
549
root  43.8424 38.1702 -138.395 0.744019 -67.4326 2.16461
RightUpLeg  -1.15125 -5.71825 -4.18402
RightLeg  7.6172 -18.5925 -1.40926
RightFoot  -5.9404 -0.36175 6.80305
RightToes  1.21801e-010 1.2921e-014 -6.02303e-014
Spine  -12.8677 -1.13461 0.747966
Spine1  12.2102 -1.0186 -1.07639
HEad  6.44893 12.4528 -3.90457
LeftShoulder1  1.13785 -0.917794 -20.778
LeftArm  -7.80145 7.63172 -52.89
LeftForeArm  30.9233 3.76055 -10.7418
LeftHand  -0.0105644 5.06957 0.715255
RightShoulder  1.044 -0.293844 28.6085
RightArm  -26.3177 2.03485 50.1233
RightForeArm  67.5619 -5.30654 2.96365
RightHand  0.835158 -10.3945 -19.6391
LeftUpLeg  -1.94611 3.24283 0.173652
LeftLeg  5.65543 16.0945 3.07762
LeftFoot  -5.71332 0.177879 -2.92083
LeftToes  1.70735e-010 3.74918e-011 3.68705e-011
550
root  43.923 38.1804 -138.384 0.662415 -67.3635 2.37576
RightUpLeg  -1.33818 -5.78335 -4.34334
RightLeg  7.54285 -18.6316 -1.36586
RightFoot  -5.79806 -0.382189 7.06901
RightToes  1.21801e-010 1.2921e-014 -6.02303e-014
Spine  -12.9638 -1.13969 0.850859
Spine1  12.726 -0.979293 -1.29032
HEad  5.82989 12.6584 -3.99195
LeftShoulder1  1.05294 -0.632396 -20.5588
LeftArm  -7.42236 7.10411 -53.1457
LeftForeArm  30.5171 4.24719 -10.8925
LeftHand  -0.0229143 5.7039 -0.221054
RightShoulder  1.03034 -0.315332 28.3912
RightArm  -26.541 2.26957 50.4145
RightForeArm  67.6671 -5.27655 2.8083
RightHand  0.85601 -10.5105 -19.6634
LeftUpLeg  -2.29425 3.24991 0.0467933
LeftLeg  5.90864 16.0289 3.03442
LeftFoot  -5.6125 0.175899 -2.84185
LeftToes  1.70735e-010 3.74918e-011 3.68705e-011
